#define 7e550ae588dd4e218a9d87ba52872a73M9n55CkNx6DFFQpH_width 16
#define 7e550ae588dd4e218a9d87ba52872a73M9n55CkNx6DFFQpH_height 24
static char 7e550ae588dd4e218a9d87ba52872a73M9n55CkNx6DFFQpH_bits[] = {
  0x00, 0x01, 0x00, 0x01, 0x00, 0x01, 0x00, 0x01, 0x00, 0x01, 0x00, 0x01, 
  0x00, 0x01, 0x00, 0x01, 0x00, 0x01, 0x00, 0x01, 0x00, 0x01, 0x00, 0x01, 
  0x00, 0x01, 0x00, 0x01, 0x00, 0x01, 0x00, 0x01, 0x00, 0x01, 0x00, 0x01, 
  0x00, 0x01, 0x00, 0x01, 0x00, 0x01, 0x00, 0x01, 0x00, 0x01, 0x00, 0x01, 
  };
