#define 0a2ec700cacf404cfc52e5a3051ea40d5R11tH8eME24L3g9_width 16
#define 0a2ec700cacf404cfc52e5a3051ea40d5R11tH8eME24L3g9_height 17
static char 0a2ec700cacf404cfc52e5a3051ea40d5R11tH8eME24L3g9_bits[] = {
  0x00, 0x00, 0x00, 0x00, 0x00, 0x00, 0x00, 0x00, 0x00, 0x00, 0x00, 0x00, 
  0x00, 0x00, 0x00, 0x00, 0xFF, 0xFF, 0x00, 0x00, 0x00, 0x00, 0x00, 0x00, 
  0x00, 0x00, 0x00, 0x00, 0x00, 0x00, 0x00, 0x00, 0x00, 0x00, };
