<?xml version="1.0" encoding="UTF-8" standalone="no"?>
<svg
   id="svg"
   version="1.1"
   width="374.59192"
   height="339.86404"
   viewBox="0 0 374.59191 339.86405"
   sodipodi:docname="image2vector (3).svg"
   inkscape:version="1.1 (c68e22c387, 2021-05-23)"
   xmlns:inkscape="http://www.inkscape.org/namespaces/inkscape"
   xmlns:sodipodi="http://sodipodi.sourceforge.net/DTD/sodipodi-0.dtd"
   xmlns="http://www.w3.org/2000/svg"
   xmlns:svg="http://www.w3.org/2000/svg">
  <defs
     id="defs11" />
  <sodipodi:namedview
     id="namedview9"
     pagecolor="#505050"
     bordercolor="#eeeeee"
     borderopacity="1"
     inkscape:pageshadow="0"
     inkscape:pageopacity="0"
     inkscape:pagecheckerboard="0"
     showgrid="false"
     inkscape:zoom="1"
     inkscape:cx="166.5377"
     inkscape:cy="135.02479"
     inkscape:window-width="1920"
     inkscape:window-height="1017"
     inkscape:window-x="-8"
     inkscape:window-y="-8"
     inkscape:window-maximized="1"
     inkscape:current-layer="svgg"
     fit-margin-top="0"
     fit-margin-left="0"
     fit-margin-right="0"
     fit-margin-bottom="0"
     inkscape:rotation="1" />
  <g
     id="svgg"
     transform="translate(-15.326729,-3.32)">
    <path
       id="path0"
       d="m 191.602,3.32 c -7.85363,0.1706355 -14.38661,1.6532558 -22.76983,13.041047 -3.36794,4.396308 -1.37765,9.546226 -1.44717,13.381953 -0.053,2.116 -1.033,2.75 -4.007,2.592 -9.13396,3.642688 -12.68206,12.768992 -10.701,20.526 0.935,1.126 0.413,3.082 -0.775,2.908 -7.48647,1.021448 -10.85165,6.29582 -11.81587,15.286644 -0.33371,3.111695 2.50036,8.702627 -0.51467,8.722365 -1.7761,0.01163 -4.18513,1.708206 -4.18513,1.708206 C 124.874,89.016857 122.21605,92.537273 124.303,102.344 c 0.38362,1.60268 0.70732,2.39042 -0.529,2.997 -9.82611,5.66365 -14.25877,5.0278 -16.44228,13.4297 -0.51223,3.11922 1.74795,5.4483 2.86338,7.12725 0.57649,1.44313 1.46376,3.88648 -1.49036,4.4932 -5.01589,-0.58336 -10.269822,-0.67869 -13.049719,8.65884 -1.862359,6.25557 -0.378014,13.74323 -6.024701,14.82785 -11.250544,4.80293 -11.243037,12.96836 -10.725921,19.90953 0.115186,1.54611 0.28611,2.18145 -0.219399,3.21663 -9.484086,5.65273 -20.697036,14.95975 -17.231,28.465 2.108047,6.60915 2.174973,7.05988 5.31805,11.12069 5.825229,7.52611 11.16117,11.56427 23.164817,10.72022 3.61335,-0.4536 5.200133,0.17109 4.791133,3.14709 2.421114,14.7858 12.04436,12.69645 21.288,11.693 1.46728,-0.5279 2.52977,-0.0963 2.423,1.317 6.56016,13.9455 10.8248,14.43674 19.92939,13.55636 0,0 1.41008,-0.49767 2.51908,-0.69467 6.22542,1.60789 2.08009,10.44188 8.78057,14.78642 4.5016,2.88126 10.53418,1.14526 14.66096,0.11489 1.47821,-0.49253 2.57808,0.25835 3.043,1.053 1.03303,8.80756 10.0501,16.69946 17.601,14.455 1.99154,-0.79389 7.8499,-1.90814 7.564,0.699 4.31953,10.43448 12.32446,16.56351 21.359,12.51 1.812,-0.802 3.098,-0.734 2.804,0.147 2.34096,11.69772 11.54954,19.21416 22.753,14.251 1.314,-0.601 1.393,-0.592 2.042,0.23 -0.44693,3.44558 -0.52824,5.02904 1.427,6.517 20.10594,16.55725 51.44462,3.53915 46.922,-19.167 0,-1.283 0.911,-2.523 1.559,-2.122 0.217,0.134 0.394,0.038 0.394,-0.213 9.49818,-3.93533 17.09052,-13.44703 12.481,-21.575 -1.694,-1.818 -0.152,-3.714 2.656,-3.266 8.55798,-2.86205 17.13494,-14.57068 11.418,-21.586 -1.513,-1.836 -0.407,-3.488 1.983,-2.963 12.48681,-3.56278 16.32282,-14.10451 12.63,-21.842 -1.937,-0.743 1.035,-3.212 3.451,-2.867 9.53575,-3.91144 12.89492,-10.93358 12.045,-17.678 -0.694,0 -0.459,-2.461 0.363,-3.809 22.73828,-7.79595 8.56227,-14.72214 14.981,-26.218 13.31704,-7.94086 12.76326,-14.32485 12.095,-23.878 0.034,-1.537 0.864,-2.36 1.798,-1.782 22.06185,-16.19437 12.10765,-51.55365 -12.76231,-45.02806 -1.42733,1.0533 -3.95925,-0.36025 -4.14269,-2.24394 -5.44642,-16.338635 -11.58315,-13.442812 -22.641,-11.885 -1.544,0 -2.464,-1.295 -2.062,-2.9 -0.0548,-9.821793 -11.12409,-15.144623 -20.175,-12.162 -2.055,0.91 -3.85481,-0.347759 -4.351,-3.457 -6.65801,-11.834325 -14.48153,-11.75349 -22.99,-10.067 -0.577,-0.082 -0.879,-0.394 -0.879,-0.906 -5.16235,-12.886352 -12.95185,-17.519037 -23.29,-13.734 -0.784,1.09 -1.971,-0.629 -1.842,-2.668 -0.17493,-10.318971 -12.44203,-15.437484 -21.183,-11.781 -3.12593,1.051581 -3.55,0.41 -3.231,-1.913 1.41919,-10.206106 -14.83648,-18.494033 -22.302,-11.897 -0.702,0 -2.123,-1.98 -1.892,-2.636 C 208.82331,7.8850817 203.92636,3.3446755 191.602,3.32 m 14.257,53.734 c 0,0.228 0.188,0.298 0.417,0.156 3.99482,2.992971 0.71861,11.460319 -3.932,10.24 0,-0.216 -0.112,-0.281 -0.249,-0.144 -6.79941,-3.537536 -0.98467,-12.368866 3.764,-10.252 m 31.711,18.691 c 2.74688,5.318291 3.0402,7.992753 2.14885,8.998981 C 230.5861,95.053738 221.59839,73.832377 237.57,75.745 M 187.411,92.37 c 1.56485,1.423992 2.28566,2.985037 1.917,4.459 -1.23542,2.512323 -4.17567,5.35187 -6.625,4.707 -1.99491,-0.90834 -4.49314,-3.077594 -4.578,-5.52 1.58518,-4.243713 6.10467,-6.636538 9.286,-3.646 m 83.22176,3.275521 c -1.83308,-0.60721 -0.9423,-0.988021 -4.57943,-0.349047 -3.17215,0.557285 -5.12543,2.197142 -4.62893,6.647386 0.32209,2.88692 2.00193,3.36995 3.95008,3.67146 3.25684,0.50407 5.92616,0.13307 6.29258,-0.28595 1.5634,-1.78788 1.32796,-8.529285 -1.0343,-9.683849 M 217.997,110.034 c 2.395,1.194 3.03835,1.99199 3.59446,4.26286 0.14897,1.55243 0.0599,1.9591 -0.48046,2.56814 -2.12549,3.33627 -6.00816,4.39835 -8.91078,1.781 -1.553,-1.32521 -1.93929,-3.25042 -1.66654,-4.79531 0.54621,-3.09376 4.10902,-5.43676 7.46332,-3.81669 m 83.175,3.335 c 0,0 -0.193,0.119 0,0 0.293,-0.181 2.12552,0.78969 2.85891,3.36568 0.61115,6.98066 -5.09744,9.1098 -9.10891,4.28432 0,0 -0.38842,-0.30322 -0.586,-0.958 -1.32164,-3.80976 3.33917,-7.82029 6.836,-6.692 m -135.78125,11.04338 c 3.56921,2.04166 4.43481,7.10495 2.41025,9.40462 -5.28692,3.84297 -10.88597,-0.84991 -8.179,-6.95 1.18309,-1.52411 4.20777,-3.20452 5.76875,-2.45462 m 84.047,3.54812 v 0 c 0.416,-0.258 3.76575,1.26075 4.17375,5.411 -0.97761,6.8851 -4.46212,6.50205 -9.1725,4.1355 -5.09685,-3.36032 -0.62954,-9.47927 3.413,-9.773 0.752,0 1.58575,-5e-4 1.58575,0.2265 m 85.15725,4.8745 c 0.65957,0.65587 0.88469,1.46333 1.172,2.081 1.90402,4.09336 -1.71911,7.05576 -5.17868,6.74087 -2.5943,-0.23613 -5.07085,-2.84869 -5.19732,-5.27687 -0.0948,-1.82015 1.77773,-3.29456 3.32,-4.148 1.657,-0.893 4.613,-0.59 5.884,0.603 m -136.14465,11.30004 v 0 c 1.186,-0.455 2.07465,3.33996 1.33165,5.28496 -1.7556,2.86064 -5.06245,3.40769 -6.78637,1.83334 -1.79717,-1.64123 -1.91719,-5.50376 1.07017,-7.23096 2.05913,-1.65074 4.38455,-0.76934 4.38455,0.11266 M 281.273,148.712 c 0.92399,0.86237 2.78823,2.10781 2.94512,3.40386 0.26105,2.15655 -2.02204,4.36379 -5.20612,4.52314 -1.6839,0.0843 -4.24306,-2.25237 -4.12906,-4.52637 0.205,-4.064 3.75006,-5.62263 6.39006,-3.40063 m -135.416,12.653 c 2.52198,2.31189 2.93037,6.24066 1.54804,7.41058 -1.18309,1.00129 -3.74293,2.05958 -6.28931,-0.11184 -5.20649,-4.41939 1.13163,-9.96548 4.74127,-7.29874 m 85.81598,4.00854 c 1.719,1.565 1.46782,3.53898 -0.0167,5.14048 -1.4112,1.52238 -4.23407,1.99228 -5.79009,1.08918 -1.08916,-0.63215 -2.09688,-3.23229 -2.01782,-4.61742 0.22653,-3.96903 3.547,-5.166 6.607,-2.382 M 312.972,167.117 c 2.51917,1.00198 4.80227,4.11451 3.46613,6.30457 -0.49742,0.81531 -1.69656,2.48394 -3.82113,2.83311 -2.34348,-0.22561 -3.188,-0.84568 -4.219,-2.19668 -1.97193,-2.88959 0.58468,-8.43484 4.574,-6.941 M 177.148,178.86 c 3.19912,1.01341 4.66362,4.09159 3.15245,6.08074 -0.76116,1.00192 -3.20984,2.95743 -5.01948,2.53283 -2.36718,-0.81584 -3.58159,-2.8734 -3.84114,-4.32498 -0.48869,-2.73309 2.53589,-5.64923 5.70817,-4.28859 m 85.52145,2.67803 c 2.09447,2.1169 0.37306,7.00135 -1.74052,8.29615 -2.57751,1.579 -4.90286,1.03221 -6.62739,-1.44493 -0.78319,-1.12497 -1.04738,-5.99341 2.06724,-7.32363 3.18339,-1.35959 4.98912,-1.34872 6.30067,0.47241 M 126.184,195.583 c 1.04895,1.25384 1.44974,2.5989 1.58837,3.94641 -0.41338,2.85678 -3.36707,4.74041 -5.87688,4.39635 -2.55802,-0.35066 -4.67539,-2.97251 -5.36261,-4.63806 -0.62234,-1.5083 1.53791,-4.72315 3.69595,-5.54369 2.43098,-0.81823 4.43555,0.57156 5.95517,1.83895 m 81.668,1.737 c 2.761,0.924 4.199,3.023 4.063,5.926 -0.173,3.688 -4.475,4.504 -8.351,1.584 -1.672,-1.26 0.468,-7.079 2.921,-7.941 0.021,-0.008 0.637,0.186 1.367,0.431 m 84.09583,1.34207 c 5.6711,0.46581 7.83015,4.37891 6.49805,8.14335 -1.13675,3.21237 -6.13237,3.91832 -8.35656,1.6326 -3.74542,-3.84903 -2.21286,-8.69888 1.85851,-9.77595 M 159.186,211.776 c 2.61675,2.7598 3.54647,5.74691 1.595,7.968 -3.09031,3.38243 -9.72086,1.32776 -10.195,-3.291 -0.10172,-4.86543 3.31797,-5.72358 6.139,-5.861 0.678,-0.029 1.566,0.399 2.461,1.184 m 82.346,3.041 c 2.219,0.844 3.781,3.234 3.781,5.787 -1.84438,7.35854 -11.03086,4.66329 -11.268,-0.742 0.98307,-2.84505 4.19591,-6.23804 7.487,-5.045 m -50.796,15.827 c 0.72746,0.59043 2.10401,0.8984 2.51834,1.72125 0.98059,1.94745 0.18096,4.74541 -1.39234,6.36275 -2.86633,1.96881 -7.22369,0.68137 -8.6768,-2.03524 -2.06505,-3.86064 0.18074,-9.76278 7.5508,-6.04876 m 83.948,3.664 c 1.496,1.332 1.995,3.711 1.542,7.338 -0.278,2.224 -5.395,3.088 -7.792,1.316 -5.8483,-3.95805 0.87841,-12.92577 6.25,-8.654 m -52.223,14.705 c 6.11919,4.21224 0.1434,12.89539 -5.707,8.965 -5.493,-3.806 -0.567,-11.544 5.707,-8.965 m 31.152,18.132 c 3.16766,1.66381 3.2319,8.7929 1.44371,10.441 -3.41659,3.14892 -12.0594,-0.47568 -6.87371,-8.574 1.66774,-1.53735 3.57881,-2.12707 5.43,-1.867"
       stroke="none"
       fill="#ecb464"
       fill-rule="evenodd"
       sodipodi:nodetypes="ccccccssccccccscsccscccccccccccccccccccccccccccccccccccccccccccccccccccscccccccsssscccccsccccccccccccccccccssscccccscccsscccscccsssccsccccscsccssscccsscccccccccccccccscscccscscccccccccccc" />
    <path
       id="path1"
       d="m 113.97461,71.094864 c 0,0 0.419,0.109 0,0 -3.56108,0.234453 -7.14909,2.388641 -9.40059,5.056726 -2.43286,2.93291 -3.55356,6.923921 -4.25302,6.56341 -6.506121,-5.584376 -18.244256,-1.393686 -21.995,3.374 -3.768328,6.604566 -3.015995,4.493792 -11.022,2.675 -0.795,-0.057 -1.542,-0.239 -1.66,-0.404 -7.118086,-0.818231 -12.232443,0.397862 -15.573,7.156 -1.020636,1.505139 -1.005047,2.745879 -1.806388,3.683777 -1.247926,0.897073 -1.693495,1.075333 -3.185,0.426 -5.174331,-1.412997 -13.035825,0.905823 -18.064344,3.150653 -4.355458,1.94436 -8.895284,5.75023 -10.463489,10.31062 -3.419488,9.944 0.740244,23.16448 7.276221,28.65195 0,0.166 -0.439,1.213 -0.976,2.327 -8.933774,13.33051 6.110696,17.81023 8.147864,24.37228 0.400298,1.72412 0.286181,1.62883 -0.56291,2.58688 -8.606594,9.71112 -4.667898,19.26154 7.455046,25.98184 -1.560037,11.14833 -1.117787,21.8577 10.802,25.817 1.527,0.457 1.481,1.473 -0.134,2.953 -6.14065,6.30025 -1.994142,18.8797 4.509,22.691 2.776,0.133 5.148,3.471 3.58,5.039 -0.937643,2.3302 -0.849511,3.12133 -1.457,4.696 -1.122923,8.30321 1.094842,13.59883 9.032029,19.14411 6.46521,8.91413 -1.724897,19.77781 9.652971,27.20389 1.845501,0.63118 3.762638,1.03145 0.592951,3.69357 -5.484944,11.8849 6.96166,33.80154 20.072049,34.78343 10.33448,0.85129 18.15806,-1.63025 23.43056,-11.16619 1.84645,-2.74693 2.85144,-2.94881 4.72044,-1.27981 10.80853,9.78408 18.92167,-5.43321 24.97409,-9.49761 1.37663,0.269 2.23415,1.06352 2.48415,1.06352 7.56395,4.9902 17.8798,3.91779 22.69576,-6.09191 1.07,-2.415 4.106,-4.187 4.106,-2.396 2.23489,3.85558 26.85428,1.95886 27.8205,-5.0485 -6.75794,1.63007 -13.79921,-5.18243 -14.08871,-12.35656 -0.33714,-3.6781 -1.39583,-3.9529 -1.99582,-4.34775 -0.73495,-0.48366 -2.534,-0.8259 -4.28979,-0.16417 -5.6554,0.79906 -9.36119,2.21406 -14.49646,-3.43634 -2.08136,-3.09308 -2.11854,-10.64283 -6.12262,-10.74657 -1.44323,-0.0374 -6.55901,-0.43526 -9.12944,0.47213 -5.47891,0.84247 -11.19226,-5.26996 -13.48575,-9.47248 -0.495,-1.121 -2.22332,-4.657 -3.01132,-4.704 -4.35005,-1.84558 -9.6491,0.11172 -13.74557,-1.97452 -5.12668,-3.34584 -6.88585,-8.73172 -9.4137,-11.10334 -1.26869,-0.56981 -2.13083,-0.32606 -3.23916,-0.15413 -9.42478,1.46199 -12.539865,1.29542 -15.322297,-3.49459 -2.143756,-3.69052 -4.190918,-10.47514 -8.203052,-14.26755 -5.357947,-0.80586 -11.216974,1.76022 -16.071405,-0.30275 -7.591359,-3.22607 -13.424937,-9.80084 -16.46469,-16.08886 -4.710087,-9.74326 -4.811307,-23.11609 6.86911,-34.93181 3.415965,-2.82507 11.548502,-7.89543 11.17159,-10.30146 -1.578802,-10.32732 2.325993,-18.35099 11.981182,-22.70736 7.38671,-8.4623 1.383371,-18.09068 15.744852,-23.74451 0.72874,-4.57456 -1.28027,-5.68154 -0.28828,-9.57828 1.63136,-6.40433 4.66661,-7.23514 6.56065,-9.18298 3.32595,-2.05628 3.99795,-1.68317 6.60814,-3.35923 3.074,-1.868 1.07604,-2.92839 1.16404,-5.20339 0.0868,-11.164057 10.27782,-13.61681 16.48786,-21.55767 0,0 -3.15019,-2.230899 -4.55033,-2.864047 -4.45104,-2.640589 -8.19834,-2.43605 -13.46792,-1.944419 M 73.047,131.641 v 0 c 3.011997,1.32398 3.824074,4.99678 2.380796,6.7416 -0.956979,1.15691 -3.211583,3.16367 -5.499184,2.78711 -3.273249,-0.69436 -5.523587,-3.5572 -4.986616,-5.80854 0.474042,-1.98751 2.278078,-4.02003 4.550504,-4.51742 0.752,0 2.976375,0.45725 3.5545,0.79725 m 45.36974,149.63245 c 0,0 5.94159,-0.5157 7.17903,5.0661 -0.20507,3.18625 -3.75727,6.98119 -6.27142,6.98508 -2.06627,0.003 -6.94523,-1.50599 -7.35028,-4.2807 -0.4864,-3.63832 2.70987,-8.78697 6.44267,-7.77048"
       stroke="none"
       fill="#dc8c34"
       fill-rule="evenodd"
       sodipodi:nodetypes="ccccccccccsscccsccccccccccccccccccsccscccccsscsscccccccccccccscsccccscc" />
  </g>
</svg>
